<svg id="Layer_1" xmlns="http://www.w3.org/2000/svg" width="60" height="40"><style>.st0{fill:#f8991d;stroke:#f8991d;stroke-miterlimit:10}</style><path class="st0" d="M43.09 24.26c0 .09-.06 9.32-.1 12.24h-7.25c.03-2.26.09-10.59.09-12.07v-.16a4.88 4.88 0 0 0-5.66-4.82 12.24 12.24 0 0 0-5.12-5.77 12.08 12.08 0 0 1 17.1 5.93c.6 1.44.94 3.01.94 4.65zM45.96 12.31c-2.12 0-4.11.55-5.84 1.5a12.15 12.15 0 0 1 5.06 5.81 4.88 4.88 0 0 1 5.65 4.81c0 .83-.06 9.86-.1 12.23h7.25c.04-2.93.09-12.15.09-12.24 0-6.67-5.44-12.11-12.11-12.11z"/><path d="M28.12 24.18c0 6.67-5.43 12.1-12.1 12.1A12.12 12.12 0 0 1 3.95 24.95h-.03V3.33a12.08 12.08 0 0 1 7.21 4.2v16.65a4.88 4.88 0 1 0 4.88-4.89l-.31.01-.09.01-.24.03-.07.01-.3.05-.06.01-.24.06-.07.02-.23.08-.34.13-.06.03-.1.05-.14.07-.04.02-.27.16-.01.01a5 5 0 0 0-.24.16l-.03.02c-.17.12-.33.26-.49.4v-8.06a12.85 12.85 0 0 1 3.34-.47 12.1 12.1 0 0 1 12.1 12.09z" fill="#fff"/></svg>