<svg width="60" height="40" viewBox="0 0 60 40" fill="none" xmlns="http://www.w3.org/2000/svg">
<path d="M28.12 24.18C28.12 30.85 22.69 36.28 16.02 36.28C12.9465 36.2738 9.99015 35.1003 7.74926 32.9967C5.50837 30.8932 4.15033 28.0169 3.95 24.95H3.92V3.32999C6.74591 3.82916 9.30182 5.31804 11.13 7.52999V24.18C11.132 25.1447 11.4199 26.0872 11.9573 26.8884C12.4947 27.6896 13.2575 28.3136 14.1494 28.6814C15.0413 29.0492 16.0222 29.1444 16.9682 28.955C17.9141 28.7656 18.7827 28.3 19.4642 27.6171C20.1457 26.9343 20.6095 26.0647 20.7969 25.1184C20.9844 24.172 20.8872 23.1913 20.5176 22.3002C20.1479 21.4091 19.5224 20.6475 18.7201 20.1117C17.9178 19.5759 16.9747 19.29 16.01 19.29L15.7 19.3L15.61 19.31L15.37 19.34L15.3 19.35L15 19.4L14.94 19.41L14.7 19.47L14.63 19.49L14.4 19.57L14.06 19.7L14 19.73L13.9 19.78L13.76 19.85L13.72 19.87L13.45 20.03L13.44 20.04C13.3585 20.091 13.2784 20.1444 13.2 20.2L13.17 20.22C13 20.34 12.84 20.48 12.68 20.62V12.56C13.7678 12.2573 14.8909 12.0992 16.02 12.09C19.2274 12.09 22.3036 13.3634 24.5725 15.6305C26.8414 17.8975 28.1173 20.9726 28.12 24.18V24.18Z" fill="white"/>
<path d="M43.3555 22.1094C42.623 22.4186 41.8825 22.793 41.1338 23.2324C40.3851 23.6719 39.7096 24.1683 39.1074 24.7217C38.5215 25.2588 38.0332 25.861 37.6426 26.5283C37.2682 27.1794 37.0811 27.8792 37.0811 28.6279C37.0811 29.458 37.2926 30.109 37.7158 30.5811C38.1553 31.0531 38.7412 31.2891 39.4736 31.2891C40.0921 31.2891 40.7025 31.11 41.3047 30.752C41.9069 30.3776 42.5905 29.8975 43.3555 29.3115V22.1094ZM29.4883 16.3477C29.7487 15.306 30.2044 14.362 30.8555 13.5156C31.5065 12.653 32.3122 11.9287 33.2725 11.3428C34.249 10.7406 35.3558 10.2767 36.5928 9.95117C37.846 9.62565 39.1969 9.46289 40.6455 9.46289C42.4359 9.46289 43.9821 9.62565 45.2842 9.95117C46.5863 10.2767 47.6523 10.7406 48.4824 11.3428C49.3288 11.9287 49.9473 12.6449 50.3379 13.4912C50.7448 14.3213 50.9482 15.2572 50.9482 16.2988V30.6055C50.9482 31.6309 51.2656 32.5016 51.9004 33.2178C52.5352 33.9339 53.4303 34.528 54.5859 35H45.6016C45.3411 35 45.0889 34.9268 44.8447 34.7803C44.6006 34.6338 44.3809 34.4466 44.1855 34.2188C43.9902 33.9746 43.8193 33.7142 43.6729 33.4375C43.5264 33.1608 43.4206 32.8923 43.3555 32.6318C42.8997 33.055 42.4684 33.4456 42.0615 33.8037C41.6546 34.1455 41.207 34.4385 40.7188 34.6826C40.2305 34.9268 39.6852 35.1139 39.083 35.2441C38.4808 35.3906 37.7565 35.4639 36.9102 35.4639C35.7546 35.4639 34.7129 35.3011 33.7852 34.9756C32.8737 34.6501 32.0924 34.2025 31.4414 33.6328C30.8066 33.0469 30.3184 32.3633 29.9766 31.582C29.6348 30.7845 29.4639 29.9219 29.4639 28.9941C29.4639 27.5618 29.8626 26.333 30.6602 25.3076C31.4577 24.2822 32.5075 23.387 33.8096 22.6221C35.1279 21.8571 36.6172 21.1898 38.2773 20.6201C39.9375 20.0505 41.6302 19.5052 43.3555 18.9844V16.543C43.3555 15.7454 43.2741 15.07 43.1113 14.5166C42.9486 13.9469 42.7207 13.4912 42.4277 13.1494C42.1348 12.7913 41.7767 12.5391 41.3535 12.3926C40.9466 12.2298 40.4909 12.1484 39.9863 12.1484C39.3841 12.1484 38.847 12.2624 38.375 12.4902C37.903 12.7181 37.4961 13.0273 37.1543 13.418C36.8125 13.8086 36.5358 14.2562 36.3242 14.7607C36.1126 15.2653 35.958 15.7943 35.8604 16.3477H29.4883Z" fill="#F7941D"/>
</svg>
